<svg width="73" height="73" viewBox="0 0 73 73" fill="none" xmlns="http://www.w3.org/2000/svg">
<path d="M19 51C20.6569 51 22 52.3431 22 54V70C22 71.6569 20.6569 73 19 73H3C1.34315 73 4.83199e-08 71.6569 0 70V54C0 52.3431 1.34315 51 3 51H19ZM41 57C42.6569 57 44 58.3431 44 60V69C44 70.6569 42.6569 72 41 72H32C30.3431 72 29 70.6569 29 69V60C29 58.3431 30.3431 57 32 57H41ZM67 57C68.6569 57 70 58.3431 70 60V69C70 70.6569 68.6569 72 67 72H58C56.3431 72 55 70.6569 55 69V60C55 58.3431 56.3431 57 58 57H67ZM19 26C20.6569 26 22 27.3431 22 29V45C22 46.6569 20.6569 48 19 48H3C1.34315 48 4.83199e-08 46.6569 0 45V29C0 27.3431 1.34315 26 3 26H19ZM45 26C46.6569 26 48 27.3431 48 29V45C48 46.6569 46.6569 48 45 48H29C27.3431 48 26 46.6569 26 45V29C26 27.3431 27.3431 26 29 26H45ZM67 29C68.6569 29 70 30.3431 70 32V41C70 42.6569 68.6569 44 67 44H58C56.3431 44 55 42.6569 55 41V32C55 30.3431 56.3431 29 58 29H67ZM20 0C21.6569 3.5434e-07 23 1.34315 23 3V20C23 21.6569 21.6569 23 20 23H3C1.34315 23 0 21.6569 0 20V3C3.54346e-07 1.34315 1.34315 0 3 0H20ZM45 0C46.6569 0 48 1.34315 48 3V19C48 20.6569 46.6569 22 45 22H29C27.3431 22 26 20.6569 26 19V3C26 1.34315 27.3431 4.83192e-08 29 0H45ZM70 0C71.6569 0 73 1.34315 73 3V19C73 20.6569 71.6569 22 70 22H54C52.3431 22 51 20.6569 51 19V3C51 1.34315 52.3431 4.83192e-08 54 0H70Z" fill="#D9D9D9"/>
</svg>
