<svg width="60" height="40" viewBox="0 0 60 40" fill="none" xmlns="http://www.w3.org/2000/svg">
<g clip-path="url(#clip0_854_47)">
<path opacity="0.2" fill-rule="evenodd" clip-rule="evenodd" d="M38.3828 34.3859L40.9688 36.9719C41.3439 37.3468 41.8525 37.5575 42.3828 37.5575C42.9131 37.5575 43.4218 37.3468 43.7968 36.9719L59.3528 21.4159C59.5386 21.2302 59.686 21.0096 59.7866 20.7669C59.8871 20.5242 59.9389 20.2641 59.9389 20.0014C59.9389 19.7387 59.8871 19.4785 59.7866 19.2358C59.686 18.9931 59.5386 18.7726 59.3528 18.5869L43.7968 3.03089C43.4218 2.65594 42.9131 2.44531 42.3828 2.44531C41.8525 2.44531 41.3439 2.65594 40.9688 3.03089L38.3828 5.61689L51.3528 18.5869C51.5386 18.7726 51.686 18.9931 51.7866 19.2358C51.8871 19.4785 51.9389 19.7387 51.9389 20.0014C51.9389 20.2641 51.8871 20.5242 51.7866 20.7669C51.686 21.0096 51.5386 21.2302 51.3528 21.4159L38.3828 34.3859Z" fill="#478BEB"/>
<path opacity="0.4" fill-rule="evenodd" clip-rule="evenodd" d="M30.3828 34.3859L32.9688 36.9719C33.3439 37.3468 33.8525 37.5575 34.3828 37.5575C34.9131 37.5575 35.4218 37.3468 35.7968 36.9719L51.3528 21.4159C51.5386 21.2302 51.686 21.0096 51.7866 20.7669C51.8871 20.5242 51.9389 20.2641 51.9389 20.0014C51.9389 19.7387 51.8871 19.4785 51.7866 19.2358C51.686 18.9931 51.5386 18.7726 51.3528 18.5869L35.7968 3.03089C35.4218 2.65594 34.9131 2.44531 34.3828 2.44531C33.8525 2.44531 33.3439 2.65594 32.9688 3.03089L30.3828 5.61689L43.3528 18.5869C43.5386 18.7726 43.686 18.9931 43.7866 19.2358C43.8871 19.4785 43.9389 19.7387 43.9389 20.0014C43.9389 20.2641 43.8871 20.5242 43.7866 20.7669C43.686 21.0096 43.5386 21.2302 43.3528 21.4159L30.3828 34.3859Z" fill="#478BEB"/>
<path opacity="0.7" d="M43.3534 18.5877L27.797 3.0314C27.016 2.25035 25.7496 2.25035 24.9686 3.0314L9.41225 18.5877C8.6312 19.3688 8.6312 20.6351 9.41225 21.4162L24.9686 36.9725C25.7496 37.7536 27.016 37.7536 27.797 36.9725L43.3534 21.4162C44.1344 20.6351 44.1344 19.3688 43.3534 18.5877Z" fill="#478BEB"/>
<path d="M35.3534 18.5877L19.797 3.0314C19.016 2.25035 17.7496 2.25035 16.9686 3.0314L1.41225 18.5877C0.631201 19.3688 0.631201 20.6351 1.41225 21.4162L16.9686 36.9725C17.7496 37.7536 19.016 37.7536 19.797 36.9725L35.3534 21.4162C36.1344 20.6351 36.1344 19.3688 35.3534 18.5877Z" fill="#478BEB"/>
<mask id="mask0_854_47" style="mask-type:alpha" maskUnits="userSpaceOnUse" x="0" y="2" width="36" height="36">
<path d="M34.9998 18.9412L19.4435 3.38488C18.8577 2.79909 17.9079 2.79909 17.3222 3.38488L1.7658 18.9412C1.18002 19.527 1.18002 20.4768 1.7658 21.0625L17.3222 36.6189C17.9079 37.2047 18.8577 37.2047 19.4435 36.6189L34.9998 21.0625C35.5856 20.4768 35.5856 19.527 34.9998 18.9412Z" stroke="black"/>
</mask>
<g mask="url(#mask0_854_47)">
<g style="mix-blend-mode:overlay" filter="url(#filter0_f_854_47)">
<path d="M18.5 17C26.5081 17 33 10.2843 33 2C33 -6.28427 26.5081 -13 18.5 -13C10.4919 -13 4 -6.28427 4 2C4 10.2843 10.4919 17 18.5 17Z" fill="#B3B3B3"/>
</g>
</g>
<mask id="mask1_854_47" style="mask-type:alpha" maskUnits="userSpaceOnUse" x="0" y="2" width="60" height="36">
<path fill-rule="evenodd" clip-rule="evenodd" d="M32.9702 36.9714L30.3852 34.3854L27.7992 36.9714C27.6135 37.1572 27.393 37.3046 27.1503 37.4052C26.9075 37.5057 26.6474 37.5575 26.3847 37.5575C26.122 37.5575 25.8618 37.5057 25.6191 37.4052C25.3764 37.3046 25.1559 37.1572 24.9702 36.9714L22.3852 34.3854L19.7992 36.9714C19.6135 37.1572 19.393 37.3046 19.1503 37.4052C18.9075 37.5057 18.6474 37.5575 18.3847 37.5575C18.122 37.5575 17.8618 37.5057 17.6191 37.4052C17.3764 37.3046 17.1559 37.1572 16.9702 36.9714L1.4142 21.4154C1.22839 21.2297 1.081 21.0092 0.980443 20.7665C0.879883 20.5238 0.828125 20.2636 0.828125 20.0009C0.828125 19.7382 0.879883 19.4781 0.980443 19.2354C1.081 18.9927 1.22839 18.7722 1.4142 18.5864L16.9702 3.03043C17.1559 2.84463 17.3764 2.69724 17.6191 2.59668C17.8618 2.49612 18.122 2.44436 18.3847 2.44436C18.6474 2.44436 18.9075 2.49612 19.1503 2.59668C19.393 2.69724 19.6135 2.84463 19.7992 3.03043L22.3842 5.61643L24.9702 3.02943C25.1559 2.84363 25.3764 2.69624 25.6191 2.59568C25.8618 2.49512 26.122 2.44336 26.3847 2.44336C26.6474 2.44336 26.9075 2.49512 27.1503 2.59568C27.393 2.69624 27.6135 2.84363 27.7992 3.02943L30.3842 5.61543L32.9702 3.02943C33.1559 2.84363 33.3764 2.69624 33.6191 2.59568C33.8618 2.49512 34.122 2.44336 34.3847 2.44336C34.6474 2.44336 34.9075 2.49512 35.1503 2.59568C35.393 2.69624 35.6135 2.84363 35.7992 3.02943L38.3852 5.61543L40.9702 3.02943C41.1559 2.84363 41.3764 2.69624 41.6191 2.59568C41.8618 2.49512 42.122 2.44336 42.3847 2.44336C42.6474 2.44336 42.9075 2.49512 43.1503 2.59568C43.393 2.69624 43.6135 2.84363 43.7992 3.02943L59.3552 18.5854C59.541 18.7712 59.6884 18.9917 59.789 19.2344C59.8895 19.4771 59.9413 19.7372 59.9413 19.9999C59.9413 20.2626 59.8895 20.5228 59.789 20.7655C59.6884 21.0082 59.541 21.2287 59.3552 21.4144L43.7992 36.9714C43.6135 37.1572 43.393 37.3046 43.1503 37.4052C42.9075 37.5057 42.6474 37.5575 42.3847 37.5575C42.122 37.5575 41.8618 37.5057 41.6191 37.4052C41.3764 37.3046 41.1559 37.1572 40.9702 36.9714L38.3852 34.3854L35.7992 36.9714C35.6135 37.1572 35.393 37.3046 35.1503 37.4052C34.9075 37.5057 34.6474 37.5575 34.3847 37.5575C34.122 37.5575 33.8618 37.5057 33.6191 37.4052C33.3764 37.3046 33.1559 37.1572 32.9702 36.9714Z" fill="#42A9F3"/>
</mask>
<g mask="url(#mask1_854_47)">
<g opacity="0.6" filter="url(#filter1_f_854_47)">
<path d="M10 14C27.6731 14 42 3.92641 42 -8.5C42 -20.9264 27.6731 -31 10 -31C-7.67311 -31 -22 -20.9264 -22 -8.5C-22 3.92641 -7.67311 14 10 14Z" fill="#149CB7"/>
</g>
</g>
</g>
<defs>
<filter id="filter0_f_854_47" x="-16" y="-33" width="69" height="70" filterUnits="userSpaceOnUse" color-interpolation-filters="sRGB">
<feFlood flood-opacity="0" result="BackgroundImageFix"/>
<feBlend mode="normal" in="SourceGraphic" in2="BackgroundImageFix" result="shape"/>
<feGaussianBlur stdDeviation="10" result="effect1_foregroundBlur_854_47"/>
</filter>
<filter id="filter1_f_854_47" x="-36" y="-45" width="92" height="73" filterUnits="userSpaceOnUse" color-interpolation-filters="sRGB">
<feFlood flood-opacity="0" result="BackgroundImageFix"/>
<feBlend mode="normal" in="SourceGraphic" in2="BackgroundImageFix" result="shape"/>
<feGaussianBlur stdDeviation="7" result="effect1_foregroundBlur_854_47"/>
</filter>
<clipPath id="clip0_854_47">
<rect width="60" height="40" fill="white"/>
</clipPath>
</defs>
</svg>
