<svg width="49" height="44" viewBox="0 0 49 44" fill="none" xmlns="http://www.w3.org/2000/svg">
<path d="M5.56149 14.5898C9.46804 3.9276 16.1769 -10.0776 38.3448 11.1672L25.4014 34.2858C29.5898 40.7572 35.7056 41.6962 36.3415 32.9363C37.1802 21.3835 40.1806 25.1887 42.9598 29.0269C44.8537 23.8578 46.0892 19.4745 48.1083 20.2741C48.9347 37.7063 46.087 33.3458 42.9598 29.0269C39.0532 39.6891 32.344 53.6936 10.176 32.4486L23.1181 9.32957C18.9297 2.85912 12.8152 1.92014 12.1794 10.6795C11.3407 22.2325 8.34068 18.428 5.56149 14.5898C3.66765 19.7588 2.43199 24.1423 0.412957 23.3426C-0.413544 5.9099 2.43417 10.2708 5.56149 14.5898ZM23.1223 9.33623C19.807 19.852 21.947 28.9434 25.3973 34.2791C28.7128 23.7626 26.573 14.6718 23.1223 9.33623Z" fill="white"/>
</svg>
