<svg width="813" height="838" viewBox="0 0 813 838" fill="none" xmlns="http://www.w3.org/2000/svg">
<path d="M251.145 279.034C284.036 270.759 348.764 238.84 333.987 174.451C316.047 96.2769 303.383 40.2875 391.501 23.9133C428.789 20.568 502.098 36.0619 497.032 124.8C494.042 148.04 483.208 204.029 472.233 223.045C472.233 223.045 459.5 242 425.799 237.834C434.769 255.265 467.167 289.492 524.998 286.957C582.829 284.421 594.648 335.023 607.312 380.977L648.469 485.032L676.435 433.797L688.043 430.628L679.601 420.592C676.083 406.859 670.525 375.695 676.435 360.905L678.018 356.679L671.686 351.397C669.048 355.975 662.821 361.539 659.022 347.172C655.223 332.805 662.364 327.1 666.409 326.044L675.379 328.685C672.934 322.215 672.223 310.049 688.753 312.78C687.337 310.638 682.679 303.454 696.486 300.69C689.802 294.528 681.5 282.837 701.762 285.372C715.357 287.073 719.418 286.967 719.716 286.394L718.119 285.372C719.103 285.72 719.863 286.113 719.716 286.394L750.306 305.972L754 328.685C748.372 351.75 735.532 398.936 729.2 403.161C722.868 407.387 726.914 405.274 729.728 403.689C736.587 413.725 745.874 435.698 728.145 443.304C726.386 443.833 724.24 448.375 729.728 462.32C725.858 481.159 716.009 517.253 705.456 534.155C694.903 551.057 698.5 589.495 673.797 606.519C655.137 619.377 631.584 610.744 623.142 606.519L605.201 597.011C603.091 593.666 596.864 589.933 599.397 578.524C601.93 567.115 547.511 469.362 518.666 424.817C514.797 435.381 507.163 493.061 507.585 639.267C505.544 677.632 468.949 663.158 444.794 681.446V700.01C451.83 707.757 474.238 723.462 507.585 724.307C549.27 725.364 545.577 766.035 549.27 780.825C552.225 792.657 543.818 801.953 539.245 805.122V826.25H549.27L558.768 847.378C561.934 888.226 572.695 993.69 565.096 1063.41H458.513C446.377 1044.75 428.332 962.209 457.458 806.707H336.625C347.354 878.894 362.688 1036.37 340.316 1063.41H237.426C229.656 1067.55 229.616 923.929 230.567 851.604L237.426 833.645H259.059C249.913 811.637 235.736 763.289 252.199 745.964C268.662 728.639 278.406 724.307 281.22 724.307H310.769L346.122 709.518L352.981 700.01V683.636C342.956 676.241 268.557 700.01 258.531 630.288L238.48 469.186L223.178 520.95C224.058 550.001 224.234 614.336 217.902 639.267C218.605 655.113 215.575 681.936 212.625 704.236C209.676 726.536 195.593 808.227 192.574 818.327L194.685 839.455L198.907 851.604L203.128 861.64C202.633 876.924 204.572 881.647 213.153 881.183C218.43 907.478 220.757 920.386 219.701 923.027C218.646 925.668 224.45 939.401 225.505 940.985C230.031 950.588 228.195 963.922 228.144 968.98C216.324 996.024 209.356 982.988 207.349 973.09C207.349 972.034 211.043 947.737 198.907 927.665C193.63 931.538 183.499 943.088 185.188 958.301C185.336 959.64 185.459 960.798 185.558 961.792L207.349 998.972C209.811 1004.96 209.669 1015.14 189.407 1007.95C190.638 1014.64 189.512 1025.49 175.16 1015.35L156.692 992.105C154.23 992.458 147.828 989.781 141.918 976.259L131.893 959.357C128.727 959.181 127.249 941.609 146.667 872.732C147.933 871.042 147.194 864.633 146.667 861.64L138.752 857.414C140.862 852.836 146.772 842.836 153.526 839.455L156.692 835.23V827.835C150.888 824.842 142.129 816.426 153.526 806.707C149.129 803.538 140.018 795.509 138.752 788.748C137.485 781.987 138.224 694.376 138.752 651.416C136.113 629.407 132.419 581.271 138.752 564.791C145.084 548.311 146.667 468.482 146.667 430.628C135.586 324.987 151.943 301.218 208.402 298.049C222.633 286.15 232.402 282.937 251.145 279.034Z" fill="#EDE9E5"/>
<path d="M444.794 681.446C468.949 663.158 505.544 677.632 507.585 639.267C507.163 493.061 514.797 435.381 518.666 424.817C547.511 469.362 601.93 567.115 599.397 578.524C596.864 589.933 603.091 593.666 605.201 597.011L623.142 606.519C631.584 610.744 655.137 619.377 673.797 606.519C698.5 589.495 694.903 551.057 705.456 534.155C716.009 517.253 725.858 481.159 729.728 462.32C724.24 448.375 726.386 443.833 728.145 443.304C745.874 435.698 736.587 413.725 729.728 403.689C726.914 405.274 722.868 407.387 729.2 403.161C735.532 398.936 748.372 351.75 754 328.685L750.306 305.972L718.119 285.372C721.109 286.429 722.024 287.908 701.762 285.372C681.5 282.837 689.802 294.528 696.486 300.69C680.656 303.859 689.099 312.839 689.099 313.367C689.099 313.895 710.205 316.536 689.099 312.839C672.214 309.881 672.917 322.17 675.379 328.685L666.409 326.044C662.364 327.1 655.223 332.805 659.022 347.172C662.821 361.539 669.048 355.975 671.686 351.397L678.018 356.679L676.435 360.905C670.525 375.695 676.083 406.859 679.601 420.592L688.043 430.628L676.435 433.797L648.469 485.032L607.312 380.977C594.648 335.023 582.829 284.421 524.998 286.957C467.167 289.492 434.769 255.265 425.799 237.834C459.5 242 472.233 223.045 472.233 223.045C483.208 204.029 494.042 148.04 497.032 124.8C502.098 36.0619 428.789 20.568 391.501 23.9133C303.383 40.2875 316.047 96.2769 333.987 174.451C348.764 238.84 284.036 270.759 251.145 279.034C232.402 282.937 222.633 286.15 208.402 298.049C151.943 301.218 135.586 324.987 146.667 430.628C146.667 468.482 145.084 548.311 138.752 564.791C132.419 581.271 136.113 629.407 138.752 651.416C138.224 694.376 137.485 781.987 138.752 788.748C140.018 795.509 149.129 803.538 153.526 806.707C142.129 816.426 150.888 824.842 156.692 827.835V835.23L153.526 839.455C146.772 842.836 140.862 852.836 138.752 857.414L146.667 861.64C147.194 864.633 147.933 871.042 146.667 872.732C127.249 941.609 128.727 959.181 131.893 959.357L141.918 976.259C147.828 989.781 154.23 992.458 156.692 992.105L175.16 1015.35C189.512 1025.49 190.638 1014.64 189.407 1007.95C209.669 1015.14 209.811 1004.96 207.349 998.972L184.13 959.357C185.186 965.343 186.876 973.513 185.188 958.301C183.499 943.088 193.63 931.538 198.907 927.665C211.043 947.737 207.349 972.034 207.349 973.09C209.356 982.988 216.324 996.024 228.144 968.98C228.195 963.922 230.031 950.588 225.505 940.985C224.45 939.401 218.646 925.668 219.701 923.027C220.757 920.386 218.43 907.478 213.153 881.183C204.572 881.647 202.633 876.924 203.128 861.64L198.907 851.604L194.685 839.455L192.574 818.327C195.593 808.227 209.676 726.536 212.625 704.236C215.575 681.936 218.605 655.113 217.902 639.267C224.234 614.336 224.058 550.001 223.178 520.95L238.48 469.186L258.531 630.288C268.557 700.01 342.956 676.241 352.981 683.636V700.01L346.122 709.518L310.769 724.307H281.22C278.406 724.307 268.662 728.639 252.199 745.964C235.736 763.289 249.913 811.637 259.059 833.645H237.426L230.567 851.604C229.616 923.929 229.656 1067.55 237.426 1063.41H340.316C362.688 1036.37 347.354 878.894 336.625 806.707H457.458C428.332 962.209 446.377 1044.75 458.513 1063.41H565.096C572.695 993.69 561.934 888.226 558.768 847.378L549.27 826.25H539.245V805.122C543.818 801.953 552.225 792.657 549.27 780.825C545.576 766.035 549.27 725.364 507.585 724.307C474.238 723.462 451.83 707.757 444.794 700.01V681.446ZM444.794 681.446C429.715 692.863 441.629 688.313 444.794 681.446Z" stroke="#1A1A1A"/>
<path d="M812.5 0.5V837H0.5V0.5H812.5Z" stroke="white" stroke-opacity="0.01"/>
</svg>
